<svg width="37" height="33" viewBox="0 0 37 33" fill="none" xmlns="http://www.w3.org/2000/svg">
<path d="M15.156 4.68732V5.43732C15.4068 5.43732 15.6409 5.312 15.78 5.10335L15.156 4.68732ZM16.2546 3.03941L15.6306 2.62339L15.6306 2.62339L16.2546 3.03941ZM21.8696 3.03941L22.4936 2.62339L21.8696 3.03941ZM22.9682 4.68732L22.3442 5.10335C22.4833 5.312 22.7174 5.43732 22.9682 5.43732V4.68732ZM20.6558 10.5465C20.6558 11.4266 19.9423 12.1402 19.0621 12.1402V13.6402C20.7707 13.6402 22.1558 12.2551 22.1558 10.5465H20.6558ZM19.0621 12.1402C18.1819 12.1402 17.4684 11.4266 17.4684 10.5465H15.9684C15.9684 12.2551 17.3535 13.6402 19.0621 13.6402V12.1402ZM17.4684 10.5465C17.4684 9.66633 18.1819 8.95282 19.0621 8.95282V7.45282C17.3535 7.45282 15.9684 8.83791 15.9684 10.5465H17.4684ZM19.0621 8.95282C19.9423 8.95282 20.6558 9.66633 20.6558 10.5465H22.1558C22.1558 8.83791 20.7707 7.45282 19.0621 7.45282V8.95282ZM15.78 5.10335L16.8786 3.45544L15.6306 2.62339L14.532 4.2713L15.78 5.10335ZM17.5546 3.09366H20.5696V1.59366H17.5546V3.09366ZM21.2456 3.45544L22.3442 5.10335L23.5922 4.2713L22.4936 2.62339L21.2456 3.45544ZM20.5696 3.09366C20.8412 3.09366 21.0949 3.22942 21.2456 3.45544L22.4936 2.62339C22.0648 1.98007 21.3427 1.59366 20.5696 1.59366V3.09366ZM16.8786 3.45544C17.0293 3.22942 17.283 3.09366 17.5546 3.09366V1.59366C16.7815 1.59366 16.0594 1.98007 15.6306 2.62339L16.8786 3.45544ZM26.1243 7.81221V13.2808H27.6243V7.81221H26.1243ZM23.7494 15.6557H14.3748V17.1557H23.7494V15.6557ZM11.9999 13.2808V7.81221H10.4999V13.2808H11.9999ZM14.3748 15.6557C13.0632 15.6557 11.9999 14.5924 11.9999 13.2808H10.4999C10.4999 15.4208 12.2347 17.1557 14.3748 17.1557V15.6557ZM26.1243 13.2808C26.1243 14.5924 25.061 15.6557 23.7494 15.6557V17.1557C25.8895 17.1557 27.6243 15.4208 27.6243 13.2808H26.1243ZM23.7494 5.43732C25.061 5.43732 26.1243 6.5006 26.1243 7.81221H27.6243C27.6243 5.67217 25.8895 3.93732 23.7494 3.93732V5.43732ZM14.3748 3.93732C12.2347 3.93732 10.4999 5.67217 10.4999 7.81221H11.9999C11.9999 6.5006 13.0632 5.43732 14.3748 5.43732V3.93732ZM14.3748 5.43732H15.156V3.93732H14.3748V5.43732ZM23.7494 3.93732H22.9682V5.43732H23.7494V3.93732Z" fill="white"/>
<circle cx="19.062" cy="4.68732" r="0.781222" fill="white"/>
<g filter="url(#filter0_d_269_368)">
<path d="M9.43872 13.367C9.70349 13.2886 9.85456 13.0104 9.77613 12.7456C9.69771 12.4808 9.4195 12.3298 9.15472 12.4082L9.43872 13.367ZM17.8436 21.3629C18.044 21.1729 18.0524 20.8564 17.8624 20.656L14.7664 17.3903C14.5764 17.1899 14.26 17.1814 14.0596 17.3714C13.8592 17.5614 13.8507 17.8779 14.0407 18.0783L16.7927 20.9811L13.8898 23.7331C13.6894 23.9231 13.681 24.2396 13.871 24.44C14.061 24.6404 14.3774 24.6488 14.5778 24.4588L17.8436 21.3629ZM28.5894 12.5319C28.3264 12.4476 28.0449 12.5923 27.9606 12.8553C27.8762 13.1182 28.021 13.3998 28.284 13.4841L28.5894 12.5319ZM20.8089 20.5006C20.5331 20.5144 20.3206 20.7491 20.3344 21.0249C20.3482 21.3007 20.5829 21.5132 20.8587 21.4994L20.8089 20.5006ZM5.5 16.0151C5.5 15.6393 5.7536 15.1839 6.44653 14.6901C7.12725 14.205 8.14315 13.7508 9.43872 13.367L9.15472 12.4082C7.80495 12.808 6.67249 13.3012 5.86618 13.8758C5.07209 14.4417 4.5 15.1582 4.5 16.0151H5.5ZM17.5129 20.5002C14.0639 20.4082 11.0014 19.734 8.81713 18.8196C7.72311 18.3616 6.87106 17.8524 6.30151 17.3436C5.72186 16.8258 5.5 16.3697 5.5 16.0151H4.5C4.5 16.785 4.96535 17.4909 5.6353 18.0894C6.31537 18.6969 7.27534 19.2583 8.43097 19.7421C10.746 20.7112 13.9333 21.405 17.4862 21.4998L17.5129 20.5002ZM28.284 13.4841C29.4647 13.8628 30.3826 14.3008 30.9948 14.7624C31.6155 15.2303 31.8428 15.6585 31.8428 16.0151H32.8428C32.8428 15.2009 32.3252 14.513 31.5968 13.9639C30.86 13.4083 29.825 12.9282 28.5894 12.5319L28.284 13.4841ZM31.8428 16.0151C31.8428 16.3538 31.6411 16.7904 31.1169 17.2897C30.601 17.781 29.827 18.2788 28.8274 18.7334C26.8315 19.6412 24.0176 20.3404 20.8089 20.5006L20.8587 21.4994C24.1729 21.3339 27.1135 20.6115 29.2414 19.6437C30.3037 19.1605 31.1838 18.607 31.8066 18.0138C32.4212 17.4285 32.8428 16.7472 32.8428 16.0151H31.8428Z" fill="white"/>
</g>
<defs>
<filter id="filter0_d_269_368" x="0.5" y="12.3875" width="36.3428" height="20.2085" filterUnits="userSpaceOnUse" color-interpolation-filters="sRGB">
<feFlood flood-opacity="0" result="BackgroundImageFix"/>
<feColorMatrix in="SourceAlpha" type="matrix" values="0 0 0 0 0 0 0 0 0 0 0 0 0 0 0 0 0 0 127 0" result="hardAlpha"/>
<feOffset dy="4"/>
<feGaussianBlur stdDeviation="2"/>
<feComposite in2="hardAlpha" operator="out"/>
<feColorMatrix type="matrix" values="0 0 0 0 0 0 0 0 0 0 0 0 0 0 0 0 0 0 0.25 0"/>
<feBlend mode="normal" in2="BackgroundImageFix" result="effect1_dropShadow_269_368"/>
<feBlend mode="normal" in="SourceGraphic" in2="effect1_dropShadow_269_368" result="shape"/>
</filter>
</defs>
</svg>
